<svg width="482" height="171" xmlns="http://www.w3.org/2000/svg"><style>.svg-element {font-family: 'Courier New', Courier, monospace;font-size: 16px;fill: black;font-weight: bold;dominant-baseline: middle;text-anchor: middle;}.svg-element-charge-border {stroke: black;stroke-width: 0.3px;fill: white;r: 2.5px;}.svg-element-charge {font-family: 'Courier New', Courier, monospace;font-size: 3px;fill: black;dominant-baseline: central;text-anchor: middle;}.svg-ligation {stroke-width: 1px;stroke: black;}.svg-element-H {fill: #727272;}.svg-element-S {fill: #f7cd29;}.svg-element-Na {fill: #f7d653;}.svg-element-Cl {fill: #21d122;}.svg-element-F {fill: #aed482;}.svg-element-N {fill: #7878fa;}.svg-element-O {fill: #eb3738;}.svg-element-C {fill: #000000;}</style><text class="svg-element svg-element-C" x="357.75" y="60.9808">C</text><text class="svg-element svg-element-C" x="383.731" y="75.9808">C</text><text class="svg-element svg-element-C" x="383.731" y="105.981">C</text><text class="svg-element svg-element-C" x="357.75" y="120.981">C</text><text class="svg-element svg-element-C" x="331.769" y="105.981">C</text><text class="svg-element svg-element-C" x="331.769" y="75.9808">C</text><text class="svg-element svg-element-H" x="357.75" y="30.9808">H</text><text class="svg-element svg-element-O" x="409.711" y="60.9808">O</text><text class="svg-element svg-element-C" x="435.692" y="45.9808">C</text><text class="svg-element svg-element-H" x="461.673" y="30.9808">H</text><text class="svg-element svg-element-H" x="420.692" y="20">H</text><text class="svg-element svg-element-H" x="450.692" y="71.9615">H</text><text class="svg-element svg-element-O" x="409.711" y="120.981">O</text><text class="svg-element svg-element-H" x="435.692" y="105.981">H</text><text class="svg-element svg-element-H" x="357.75" y="150.981">H</text><text class="svg-element svg-element-H" x="305.788" y="120.981">H</text><text class="svg-element svg-element-C" x="305.788" y="60.9808">C</text><text class="svg-element svg-element-H" x="290.788" y="35">H</text><text class="svg-element svg-element-H" x="320.788" y="35">H</text><text class="svg-element svg-element-C" x="279.808" y="75.9808">C</text><text class="svg-element svg-element-N" x="264.808" y="101.962">N</text><text class="svg-element svg-element-H" x="264.808" y="131.962">H</text><text class="svg-element svg-element-H" x="294.808" y="101.962">H</text><text class="svg-element svg-element-C" x="253.827" y="60.9808">C</text><text class="svg-element svg-element-O" x="253.827" y="30.9808">O</text><text class="svg-element svg-element-C" x="227.846" y="75.9808">C</text><text class="svg-element svg-element-H" x="242.846" y="101.962">H</text><text class="svg-element svg-element-H" x="212.846" y="101.962">H</text><text class="svg-element svg-element-C" x="201.865" y="60.9808">C</text><text class="svg-element svg-element-H" x="186.865" y="35">H</text><text class="svg-element svg-element-H" x="216.865" y="35">H</text><text class="svg-element svg-element-C" x="175.885" y="75.9808">C</text><text class="svg-element svg-element-H" x="190.885" y="101.962">H</text><text class="svg-element svg-element-H" x="160.885" y="101.962">H</text><text class="svg-element svg-element-C" x="149.904" y="60.9808">C</text><text class="svg-element svg-element-H" x="134.904" y="35">H</text><text class="svg-element svg-element-H" x="164.904" y="35">H</text><text class="svg-element svg-element-C" x="123.923" y="75.9808">C</text><text class="svg-element svg-element-H" x="123.923" y="105.981">H</text><text class="svg-element svg-element-C" x="97.9423" y="60.9808">C</text><text class="svg-element svg-element-H" x="97.9423" y="30.9808">H</text><text class="svg-element svg-element-C" x="71.9615" y="75.9808">C</text><text class="svg-element svg-element-H" x="86.9615" y="101.962">H</text><text class="svg-element svg-element-C" x="56.9615" y="101.962">C</text><text class="svg-element svg-element-H" x="56.9615" y="131.962">H</text><text class="svg-element svg-element-H" x="82.9423" y="116.962">H</text><text class="svg-element svg-element-H" x="30.9808" y="116.962">H</text><text class="svg-element svg-element-C" x="45.9808" y="60.9808">C</text><text class="svg-element svg-element-H" x="20" y="45.9808">H</text><text class="svg-element svg-element-H" x="60.9808" y="35">H</text><text class="svg-element svg-element-H" x="30.9808" y="86.9615">H</text><line class="svg-ligation" x1="365.544" y1="65.4808" x2="375.936" y2="71.4808"></line><line class="svg-ligation" x1="385.294" y1="84.844" x2="385.294" y2="97.1175"></line><line class="svg-ligation" x1="382.168" y1="84.844" x2="382.168" y2="97.1175"></line><line class="svg-ligation" x1="357.75" y1="51.9808" x2="357.75" y2="39.9808"></line><line class="svg-ligation" x1="391.525" y1="71.4808" x2="401.917" y2="65.4808"></line><line class="svg-ligation" x1="391.525" y1="110.481" x2="401.917" y2="116.481"></line><line class="svg-ligation" x1="375.936" y1="110.481" x2="365.544" y2="116.481"></line><line class="svg-ligation" x1="349.293" y1="117.903" x2="338.664" y2="111.766"></line><line class="svg-ligation" x1="350.856" y1="115.196" x2="340.226" y2="109.059"></line><line class="svg-ligation" x1="331.769" y1="96.9808" x2="331.769" y2="84.9808"></line><line class="svg-ligation" x1="350.856" y1="66.7659" x2="340.226" y2="72.9026"></line><line class="svg-ligation" x1="349.293" y1="64.0589" x2="338.664" y2="70.1957"></line><line class="svg-ligation" x1="252.264" y1="52.1175" x2="252.264" y2="39.844"></line><line class="svg-ligation" x1="255.39" y1="52.1175" x2="255.39" y2="39.844"></line><line class="svg-ligation" x1="431.192" y1="38.1865" x2="425.192" y2="27.7942"></line><line class="svg-ligation" x1="284.308" y1="83.775" x2="290.308" y2="94.1673"></line><line class="svg-ligation" x1="417.506" y1="56.4808" x2="427.898" y2="50.4808"></line><line class="svg-ligation" x1="123.923" y1="84.9808" x2="123.923" y2="96.9808"></line><line class="svg-ligation" x1="220.052" y1="71.4808" x2="209.66" y2="65.4808"></line><line class="svg-ligation" x1="154.404" y1="53.1865" x2="160.404" y2="42.7942"></line><line class="svg-ligation" x1="232.346" y1="83.775" x2="238.346" y2="94.1673"></line><line class="svg-ligation" x1="323.975" y1="110.481" x2="313.583" y2="116.481"></line><line class="svg-ligation" x1="206.365" y1="53.1865" x2="212.365" y2="42.7942"></line><line class="svg-ligation" x1="275.308" y1="83.775" x2="269.308" y2="94.1673"></line><line class="svg-ligation" x1="76.4615" y1="83.775" x2="82.4615" y2="94.1673"></line><line class="svg-ligation" x1="97.9423" y1="51.9808" x2="97.9423" y2="39.9808"></line><line class="svg-ligation" x1="323.975" y1="71.4808" x2="313.583" y2="65.4808"></line><line class="svg-ligation" x1="50.4808" y1="53.1865" x2="56.4808" y2="42.7942"></line><line class="svg-ligation" x1="171.385" y1="83.775" x2="165.385" y2="94.1673"></line><line class="svg-ligation" x1="49.1673" y1="106.462" x2="38.775" y2="112.462"></line><line class="svg-ligation" x1="64.7558" y1="106.462" x2="75.1481" y2="112.462"></line><line class="svg-ligation" x1="56.9615" y1="110.962" x2="56.9615" y2="122.962"></line><line class="svg-ligation" x1="64.1673" y1="71.4808" x2="53.775" y2="65.4808"></line><line class="svg-ligation" x1="67.4615" y1="83.775" x2="61.4615" y2="94.1673"></line><line class="svg-ligation" x1="301.288" y1="53.1865" x2="295.288" y2="42.7942"></line><line class="svg-ligation" x1="357.75" y1="129.981" x2="357.75" y2="141.981"></line><line class="svg-ligation" x1="417.506" y1="116.481" x2="427.898" y2="110.481"></line><line class="svg-ligation" x1="145.404" y1="53.1865" x2="139.404" y2="42.7942"></line><line class="svg-ligation" x1="168.09" y1="71.4808" x2="157.698" y2="65.4808"></line><line class="svg-ligation" x1="440.192" y1="53.775" x2="446.192" y2="64.1673"></line><line class="svg-ligation" x1="246.033" y1="65.4808" x2="235.64" y2="71.4808"></line><line class="svg-ligation" x1="443.486" y1="41.4808" x2="453.879" y2="35.4808"></line><line class="svg-ligation" x1="272.013" y1="71.4808" x2="261.621" y2="65.4808"></line><line class="svg-ligation" x1="38.1865" y1="56.4808" x2="27.7942" y2="50.4808"></line><line class="svg-ligation" x1="180.385" y1="83.775" x2="186.385" y2="94.1673"></line><line class="svg-ligation" x1="223.346" y1="83.775" x2="217.346" y2="94.1673"></line><line class="svg-ligation" x1="142.11" y1="65.4808" x2="131.717" y2="71.4808"></line><line class="svg-ligation" x1="297.994" y1="65.4808" x2="287.602" y2="71.4808"></line><line class="svg-ligation" x1="197.365" y1="53.1865" x2="191.365" y2="42.7942"></line><line class="svg-ligation" x1="264.808" y1="110.962" x2="264.808" y2="122.962"></line><line class="svg-ligation" x1="194.071" y1="65.4808" x2="183.679" y2="71.4808"></line><line class="svg-ligation" x1="90.1481" y1="65.4808" x2="79.7558" y2="71.4808"></line><line class="svg-ligation" x1="310.288" y1="53.1865" x2="316.288" y2="42.7942"></line><line class="svg-ligation" x1="115.466" y1="72.9026" x2="104.837" y2="66.7659"></line><line class="svg-ligation" x1="117.029" y1="70.1957" x2="106.4" y2="64.0589"></line><line class="svg-ligation" x1="41.4808" y1="68.775" x2="35.4808" y2="79.1673"></line></svg>